<?xml version="1.0" encoding="utf-8"?>
<!-- Generator: Adobe Illustrator 16.0.0, SVG Export Plug-In . SVG Version: 6.00 Build 0)  -->
<!DOCTYPE svg PUBLIC "-//W3C//DTD SVG 1.1//EN" "http://www.w3.org/Graphics/SVG/1.1/DTD/svg11.dtd">
<svg version="1.1" id="Ebene_1" xmlns="http://www.w3.org/2000/svg" xmlns:xlink="http://www.w3.org/1999/xlink" x="0px" y="0px"
	 width="65.833px" height="72.417px" viewBox="18.903 -4.076 65.833 72.417" enable-background="new 18.903 -4.076 65.833 72.417"
	 xml:space="preserve">
<g id="Backpack">
	<path fill="#7D8CAA" stroke="#50648C" stroke-width="1.5" stroke-miterlimit="10" d="M27.417,59.579v2.443
		c0,2.936,2.381,5.318,5.316,5.318H70.78c2.938,0,5.318-2.385,5.318-5.318v-2.443H27.417z"/>
	<path fill="#A0AFBE" stroke="#50648C" stroke-width="1.5" stroke-miterlimit="10" d="M72.031,42.481v11.25v5.85h5.729
		c3.229,0,5.85-2.617,5.85-5.85v-11.25H72.031L72.031,42.481z"/>
	<polygon fill="#C3CDD2" stroke="#50648C" stroke-width="1.5" stroke-miterlimit="10" points="83.609,40.079 77.759,40.079 
		72.031,40.079 72.031,43.981 83.609,43.981 	"/>
	<path fill="#A0AFBE" stroke="#50648C" stroke-width="1.5" stroke-miterlimit="10" d="M31.484,42.481v11.25v5.85h-5.728
		c-3.23,0-5.852-2.617-5.852-5.85v-11.25H31.484L31.484,42.481z"/>
	<polygon fill="#C3CDD2" stroke="#50648C" stroke-width="1.5" stroke-miterlimit="10" points="19.906,40.079 25.756,40.079 
		31.484,40.079 31.484,43.981 19.906,43.981 	"/>
	<path fill="#A0AFBE" stroke="#50648C" stroke-width="1.5" stroke-miterlimit="10" d="M76.099,11.325
		c0-2.938-2.381-5.317-5.318-5.317H32.735c-2.938,0-5.316,2.381-5.316,5.317v48.267h48.683L76.099,11.325L76.099,11.325z"/>
	<path fill="none" stroke="#50648C" stroke-width="2" stroke-miterlimit="10" d="M46.383,10.174v-8.5
		c0-2.591,2.406-4.688,5.375-4.688l0,0c2.969,0,5.375,2.099,5.375,4.688v8.5"/>
	<path fill="#50648C" d="M42.68,52.44c0,0.992-1.001,1.797-2.235,1.797l0,0c-1.231,0-2.232-0.805-2.232-1.797V8.532
		c0-0.993,1.001-1.797,2.232-1.797l0,0c1.234,0,2.235,0.804,2.235,1.797V52.44z"/>
	<path fill="#C3CDD2" stroke="#50648C" stroke-miterlimit="10" d="M44.695,37.945c0,1.174-0.951,2.125-2.125,2.125h-4.25
		c-1.174,0-2.124-0.951-2.124-2.125l0,0c0-1.174,0.95-2.125,2.124-2.125h4.25C43.743,35.82,44.695,36.771,44.695,37.945
		L44.695,37.945z"/>
	<path fill="#50648C" d="M65.304,52.44c0,0.992-1,1.797-2.234,1.797l0,0c-1.232,0-2.232-0.805-2.232-1.797V8.532
		c0-0.993,1-1.797,2.232-1.797l0,0c1.234,0,2.234,0.804,2.234,1.797V52.44z"/>
	<path fill="#C3CDD2" stroke="#50648C" stroke-miterlimit="10" d="M67.32,37.945c0,1.174-0.951,2.125-2.125,2.125h-4.25
		c-1.174,0-2.125-0.951-2.125-2.125l0,0c0-1.174,0.951-2.125,2.125-2.125h4.25C66.368,35.82,67.32,36.771,67.32,37.945L67.32,37.945
		z"/>
	<path fill="#C3CDD2" d="M76.091,6.007H51.758H27.424c0,0,0,1.379,0,3.458h48.667C76.091,7.386,76.091,6.007,76.091,6.007z"/>
	<path fill="#A0AFBE" d="M27.424,9.34c0,2.984,0.001,8.507,0,10.429c0,6.85,10.895,12.404,24.333,12.404
		c13.438,0,24.334-5.556,24.334-12.404c0-1.842,0-7.42,0-10.429H27.424z"/>
	<path fill="none" stroke="#50648C" stroke-width="1.5" stroke-miterlimit="10" d="M76.091,19.09
		c0,7.225-10.896,13.083-24.334,13.083c-13.438,0-24.333-5.858-24.333-13.083c0.001-2.833,0-13.083,0-13.083h24.333h24.334
		C76.091,6.007,76.091,16.381,76.091,19.09z"/>
	<path fill="#F2F2F2" stroke="#50648C" stroke-miterlimit="10" d="M56.758,53.362c0,0.967-0.783,1.75-1.75,1.75h-6.5
		c-0.966,0-1.75-0.783-1.75-1.75l0,0c0-0.967,0.784-1.75,1.75-1.75h6.5C55.974,51.612,56.758,52.395,56.758,53.362L56.758,53.362z"
		/>
	<path fill="#F2F2F2" stroke="#50648C" stroke-miterlimit="10" d="M57.027,19.113c0.229,0.229,0.229,0.603,0,0.83l-4.854,4.854
		c-0.229,0.229-0.604,0.229-0.831,0l-4.854-4.854c-0.229-0.229-0.229-0.601,0-0.83l4.854-4.854c0.229-0.229,0.602-0.229,0.831,0
		L57.027,19.113z"/>
	<line fill="none" stroke="#50648C" stroke-miterlimit="10" x1="50.008" y1="18.028" x2="50.008" y2="21.028"/>
	<line fill="none" stroke="#50648C" stroke-miterlimit="10" x1="53.508" y1="18.028" x2="53.508" y2="21.028"/>
</g>
</svg>
