<?xml version="1.0" standalone="no"?>
<!DOCTYPE svg PUBLIC "-//W3C//DTD SVG 20010904//EN"
 "http://www.w3.org/TR/2001/REC-SVG-20010904/DTD/svg10.dtd">
<svg version="1.0" xmlns="http://www.w3.org/2000/svg"
 width="576.000000pt" height="576.000000pt" viewBox="0 0 576.000000 576.000000"
 preserveAspectRatio="xMidYMid meet">
<metadata>
Created by potrace 1.11, written by Peter Selinger 2001-2013
</metadata>
<g transform="translate(0.000000,576.000000) scale(0.100000,-0.100000)"
fill="#000000" stroke="none">
<path d="M2765 5742 c-191 -38 -347 -180 -385 -347 -6 -28 -12 -123 -12 -212
0 -114 -4 -163 -12 -164 -6 0 -341 -1 -743 -1 l-733 -1 -1 -46 c-2 -69 -1
-165 1 -176 1 -6 2 -12 0 -15 -6 -16 -4 -523 3 -527 4 -2 4 -9 0 -16 -9 -14
-8 -811 1 -826 4 -6 4 -11 -1 -11 -4 0 -7 -245 -7 -545 l2 -545 -52 -1 c-28 0
-162 -1 -298 -1 l-247 0 0 -135 c0 -74 -2 -137 -4 -140 -3 -2 -1 -19 3 -38 4
-19 6 -36 3 -38 -2 -3 -4 -103 -3 -223 0 -181 0 -282 -1 -416 -1 -122 6 -231
17 -280 28 -120 110 -238 213 -307 101 -67 189 -93 317 -94 l50 -1 1 -80 c1
-69 7 -132 17 -171 15 -56 24 -77 52 -126 62 -104 147 -173 265 -213 l74 -25
1590 0 1590 0 66 22 c149 49 254 148 310 292 22 55 30 108 32 220 l2 80 47 2
c145 6 220 28 319 94 101 68 181 182 213 304 13 51 15 151 16 667 l0 606 -257
0 c-142 0 -277 1 -300 1 l-42 1 0 1323 c0 727 0 1336 0 1353 l-1 31 -722 1
c-398 0 -733 1 -744 1 -21 1 -22 5 -21 149 0 81 -3 169 -7 196 -7 51 -44 148
-58 154 -4 2 -8 9 -8 16 0 19 -107 118 -160 148 -114 66 -252 87 -385 60z
m225 -163 c119 -39 202 -120 227 -223 7 -32 10 -299 3 -320 -6 -18 -22 -19
-345 -19 l-340 0 -5 29 c-6 35 -4 268 3 304 23 117 132 215 267 238 56 10 143
6 190 -9z"/>
</g>
</svg>
